<?xml version="1.0" standalone="no"?>
<!DOCTYPE svg PUBLIC "-//W3C//DTD SVG 20010904//EN"
 "http://www.w3.org/TR/2001/REC-SVG-20010904/DTD/svg10.dtd">
<svg version="1.0" xmlns="http://www.w3.org/2000/svg"
 width="540.000000pt" height="335.000000pt" viewBox="0 0 540.000000 335.000000"
 preserveAspectRatio="xMidYMid meet">

<g transform="translate(0.000000,335.000000) scale(0.100000,-0.100000)"
fill="#000000" stroke="none">
<path d="M669 1936 c-20 -14 -41 -37 -47 -53 -11 -30 -25 -85 -17 -68 3 6 34
9 70 8 l65 -2 0 70 c0 80 -10 86 -71 45z"/>
<path d="M807 1954 c-8 -8 3 -93 15 -116 8 -16 28 -17 208 -15 128 1 200 -2
201 -8 1 -13 28 105 29 128 0 16 -17 17 -223 17 -123 0 -227 -3 -230 -6z"/>
<path d="M1372 1848 c2 -19 10 -23 38 -25 34 -1 50 9 50 35 0 8 -16 12 -46 12
-41 0 -45 -2 -42 -22z"/>
<path d="M1612 1848 c2 -18 11 -24 43 -28 38 -5 40 -4 42 22 2 27 0 28 -43 28
-41 0 -45 -2 -42 -22z"/>
<path d="M1797 1852 c-10 -10 -17 -22 -17 -26 0 -4 50 -5 110 -1 79 5 110 3
110 -5 0 -6 5 -8 12 -4 6 4 31 7 55 7 47 -1 52 5 25 30 -15 14 -42 17 -149 17
-113 0 -132 -2 -146 -18z"/>
<path d="M2197 1864 c-11 -11 14 -46 29 -40 8 3 14 2 14 -2 0 -4 11 -7 25 -7
21 0 25 5 25 28 0 25 -3 27 -43 27 -24 0 -47 -3 -50 -6z"/>
<path d="M2442 1848 c2 -14 10 -23 20 -23 9 0 20 -3 24 -7 12 -12 44 12 44 32
0 17 -7 20 -46 20 -41 0 -45 -2 -42 -22z"/>
<path d="M2595 1860 c-15 -24 16 -38 80 -36 36 1 65 -1 65 -6 0 -4 10 -4 23 0
12 5 48 7 80 5 55 -3 57 -2 57 22 l0 25 -149 0 c-93 0 -152 -4 -156 -10z"/>
<path d="M2960 1856 c0 -27 53 -43 78 -24 27 22 13 38 -33 38 -33 0 -45 -4
-45 -14z"/>
<path d="M3195 1843 c-27 -30 -35 -53 -10 -33 18 15 123 19 129 5 3 -5 5 5 5
23 1 32 1 32 -49 32 -41 0 -53 -5 -75 -27z"/>
<path d="M3390 1858 c0 -27 18 -39 51 -36 26 2 35 8 37 26 3 20 -1 22 -42 22
-30 0 -46 -4 -46 -12z"/>
<path d="M3636 1861 c-15 -24 6 -39 46 -35 47 4 53 8 45 29 -7 17 -82 22 -91
6z"/>
<path d="M3798 1864 c-3 -3 -4 -13 -1 -22 4 -15 21 -17 151 -16 142 1 147 2
150 23 3 21 1 21 -146 21 -82 0 -151 -3 -154 -6z"/>
<path d="M4173 1848 c3 -17 11 -22 38 -22 36 -1 65 17 54 34 -3 5 -26 10 -51
10 -40 0 -44 -2 -41 -22z"/>
<path d="M4413 1854 c-8 -20 13 -33 46 -29 14 2 32 4 39 4 6 1 12 10 12 21 0
17 -7 20 -45 20 -33 0 -47 -5 -52 -16z"/>
<path d="M4572 1848 c3 -22 7 -23 103 -23 55 0 103 -4 107 -10 5 -6 8 -6 8 2
0 7 9 10 22 8 34 -7 58 4 58 26 0 18 -8 19 -151 19 -150 0 -150 0 -147 -22z"/>
<path d="M947 1742 c-48 -1 -87 -7 -87 -12 0 -5 19 -20 43 -32 36 -19 61 -23
171 -26 137 -4 146 -2 146 45 0 20 -5 22 -93 25 -51 2 -132 2 -180 0z"/>
<path d="M2358 1743 l-168 -3 0 -75 0 -75 50 0 50 0 0 54 c0 63 2 64 89 56
l56 -5 3 -52 3 -53 45 0 44 0 0 80 c0 44 -1 79 -2 78 -2 -1 -78 -4 -170 -5z"/>
<path d="M3093 1728 c-20 -22 -43 -23 -43 -3 0 19 -85 21 -92 3 -3 -7 -3 -41
0 -75 l4 -63 48 0 c45 0 48 2 113 74 l67 74 -41 4 c-29 3 -44 -1 -56 -14z"/>
<path d="M4288 1742 l-118 -3 0 -75 0 -75 48 3 47 3 3 53 3 52 70 0 69 0 0
-55 0 -55 50 0 50 0 0 78 0 77 -52 0 c-29 0 -106 -1 -170 -3z"/>
<path d="M4718 1743 l-48 -4 0 -75 0 -74 50 0 50 0 0 80 c0 44 -1 79 -2 78 -2
-1 -24 -3 -50 -5z"/>
<path d="M585 1728 c-12 -37 -55 -300 -50 -308 8 -13 499 -13 546 0 49 14 89
59 105 121 7 28 11 56 8 60 -3 5 -60 9 -127 9 -160 0 -189 9 -255 76 l-52 54
-86 0 c-59 0 -86 -4 -89 -12z"/>
<path d="M1370 1665 l0 -75 45 0 45 0 0 54 c0 48 3 54 23 59 12 4 31 4 42 2
11 -2 32 -4 47 -4 25 -1 27 -4 30 -53 l3 -53 48 -3 47 -3 0 55 c0 91 -10 96
-185 96 l-145 0 0 -75z"/>
<path d="M1764 1725 c-4 -8 -3 -35 0 -60 11 -68 27 -75 182 -75 162 0 175 6
182 93 l4 57 -50 0 -51 0 -3 -37 -3 -38 -60 -3 c-90 -5 -105 2 -105 43 0 35 0
35 -45 35 -32 0 -47 -5 -51 -15z"/>
<path d="M2700 1665 l0 -75 45 0 45 0 0 75 0 75 -45 0 -45 0 0 -75z"/>
<path d="M3220 1665 l0 -75 50 0 50 0 0 75 0 75 -50 0 -50 0 0 -75z"/>
<path d="M3390 1665 l0 -75 45 0 45 0 0 54 c0 62 3 64 98 58 l52 -4 0 -54 0
-54 50 0 50 0 0 75 0 75 -170 0 -170 0 0 -75z"/>
<path d="M3790 1720 c0 -20 5 -21 118 -18 96 2 117 6 117 18 0 12 -21 16 -117
18 -113 3 -118 2 -118 -18z"/>
<path d="M3790 1625 l0 -36 158 3 157 3 0 30 0 30 -157 3 -158 3 0 -36z"/>
<path d="M1487 1488 c-13 -10 -15 -20 -9 -43 9 -32 34 -42 78 -31 19 5 24 13
24 40 0 35 -13 46 -54 46 -12 0 -30 -6 -39 -12z m68 -33 c0 -14 -8 -21 -27
-23 -24 -3 -28 0 -28 23 0 23 4 26 28 23 19 -2 27 -9 27 -23z"/>
<path d="M1611 1492 c-6 -2 -11 -29 -11 -63 0 -46 3 -59 15 -59 8 0 15 9 15
20 0 14 7 20 24 20 44 0 56 10 56 46 0 25 -4 34 -17 35 -10 0 -30 2 -45 3 -14
1 -31 0 -37 -2z m69 -37 c0 -20 -5 -25 -25 -25 -20 0 -25 5 -25 25 0 20 5 25
25 25 20 0 25 -5 25 -25z"/>
<path d="M1842 1491 c-8 -5 -12 -22 -10 -42 3 -32 6 -34 41 -37 21 -2 45 2 53
9 17 14 18 51 2 67 -14 14 -67 16 -86 3z m68 -36 c0 -20 -5 -25 -24 -25 -14 0
-28 5 -31 10 -12 19 4 40 30 40 20 0 25 -5 25 -25z"/>
<path d="M2103 1494 c-7 -3 -13 -21 -13 -40 0 -28 4 -35 25 -40 14 -3 37 -3
51 0 22 6 25 11 22 44 -3 35 -5 37 -38 39 -19 1 -41 0 -47 -3z m67 -39 c0 -20
-5 -25 -24 -25 -14 0 -28 5 -31 10 -12 19 4 40 30 40 20 0 25 -5 25 -25z"/>
<path d="M4788 1492 c-15 -3 -18 -14 -18 -63 0 -58 16 -81 27 -40 3 14 15 21
37 23 28 3 31 7 34 41 2 25 -1 37 -10 38 -7 0 -22 2 -33 3 -11 1 -28 0 -37 -2z
m62 -37 c0 -20 -5 -25 -25 -25 -20 0 -25 5 -25 25 0 20 5 25 25 25 20 0 25 -5
25 -25z"/>
<path d="M1383 1479 c9 -5 17 -21 17 -34 0 -14 5 -25 10 -25 6 0 10 11 10 25
0 17 7 29 23 35 17 7 12 9 -28 9 -39 0 -46 -2 -32 -10z"/>
<path d="M1730 1455 c0 -24 5 -35 15 -35 10 0 15 10 15 29 0 25 5 30 28 34 19
3 14 4 -15 6 -43 1 -43 1 -43 -34z"/>
<path d="M1962 1453 c3 -36 5 -38 41 -41 48 -4 65 9 59 48 -4 29 -6 30 -54 30
l-49 0 3 -37z m68 17 c0 -5 -8 -10 -17 -11 -13 0 -11 -3 7 -11 l25 -11 -24 -5
c-28 -4 -46 11 -38 32 7 17 47 22 47 6z"/>
<path d="M2223 1478 c2 -7 16 -13 32 -13 16 0 30 6 33 13 2 8 -8 12 -33 12
-25 0 -35 -4 -32 -12z"/>
<path d="M2314 1476 c-9 -24 1 -99 14 -104 7 -2 12 5 12 17 0 16 6 21 28 21
15 0 33 5 40 12 7 7 12 25 12 40 0 27 -2 28 -50 28 -34 0 -52 -5 -56 -14z m76
-21 c0 -20 -5 -25 -25 -25 -20 0 -25 5 -25 25 0 20 5 25 25 25 20 0 25 -5 25
-25z"/>
<path d="M2483 1483 c31 -4 37 -8 37 -29 0 -19 -5 -24 -25 -24 -31 0 -33 17
-2 23 16 3 14 5 -9 6 -35 1 -51 -20 -29 -39 7 -6 31 -10 52 -8 36 3 38 5 38
38 l0 35 -50 1 c-36 1 -39 0 -12 -3z"/>
<path d="M2598 1483 c35 -5 43 -19 15 -26 -17 -4 -17 -5 0 -6 27 -2 20 -21 -8
-21 -14 0 -25 -4 -25 -10 0 -11 39 -13 64 -4 10 4 16 18 16 40 l0 34 -47 -2
c-37 -1 -40 -2 -15 -5z"/>
<path d="M2686 1478 c-7 -23 -3 -53 8 -60 6 -4 25 -8 41 -8 41 0 52 10 53 48
1 32 1 32 -49 32 -31 0 -51 -5 -53 -12z m74 -8 c0 -5 -10 -11 -22 -11 l-23 -2
23 -4 c30 -6 28 -23 -3 -23 -20 0 -25 5 -25 25 0 20 5 25 25 25 14 0 25 -4 25
-10z"/>
<path d="M2820 1460 c0 -16 0 -32 0 -35 0 -3 3 -6 8 -7 4 -1 9 11 12 28 7 40
44 41 48 2 5 -40 22 -34 22 7 0 35 0 35 -45 35 -43 0 -45 -1 -45 -30z"/>
<path d="M2942 1453 c3 -38 3 -38 51 -41 28 -2 47 1 47 7 0 6 -16 11 -35 11
-23 0 -38 6 -42 16 -8 21 10 36 38 32 l24 -5 -25 -11 c-25 -11 -25 -11 8 -11
26 -1 32 3 32 19 0 17 -7 20 -51 20 l-50 0 3 -37z"/>
<path d="M3067 1483 c-4 -3 -7 -19 -7 -35 0 -30 23 -39 34 -13 8 22 34 18 41
-5 4 -11 10 -18 15 -15 11 7 10 75 -1 75 -5 0 -9 -4 -9 -10 0 -5 -11 -10 -25
-10 -14 0 -25 5 -25 10 0 11 -13 13 -23 3z"/>
<path d="M3223 1483 c39 -4 58 -26 39 -45 -5 -5 -20 -8 -33 -6 l-24 5 25 11
25 11 -31 0 c-35 1 -51 -21 -29 -39 7 -6 31 -10 52 -8 36 3 38 5 41 41 l3 37
-53 -2 c-44 -1 -47 -2 -15 -5z"/>
<path d="M3323 1483 c11 -3 17 -14 17 -34 0 -19 5 -29 15 -29 10 0 15 10 15
29 0 20 6 31 18 34 9 3 -5 5 -33 5 -27 0 -42 -2 -32 -5z"/>
<path d="M3427 1483 c-11 -11 -8 -48 5 -61 14 -14 88 -16 88 -2 0 6 -16 10
-35 10 -31 0 -35 3 -35 25 0 20 5 25 25 25 31 0 33 -17 3 -23 -17 -3 -14 -5
10 -6 26 -1 32 3 32 19 0 17 -7 20 -43 20 -24 0 -47 -3 -50 -7z"/>
<path d="M3557 1483 c-3 -5 -7 -20 -8 -35 -5 -37 15 -40 21 -3 4 21 12 31 27
33 18 3 22 -2 25 -30 4 -43 22 -38 26 7 l3 35 -45 0 c-25 0 -47 -3 -49 -7z"/>
<path d="M3672 1453 c3 -33 7 -38 30 -41 35 -4 69 14 62 33 -4 8 -18 15 -32
15 -25 0 -25 -1 -6 -15 18 -15 18 -15 -6 -13 -19 2 -26 10 -28 31 -5 42 -24
32 -20 -10z"/>
<path d="M3790 1456 c0 -40 15 -56 25 -26 8 26 41 26 48 -1 8 -31 27 -13 27
27 0 33 -12 45 -25 24 -3 -5 -15 -10 -26 -10 -10 0 -19 5 -19 10 0 6 -7 10
-15 10 -10 0 -15 -10 -15 -34z"/>
<path d="M3912 1453 c3 -36 5 -38 38 -41 19 -1 41 2 49 7 22 15 5 41 -26 40
-17 -1 -21 -3 -10 -6 23 -6 22 -23 -3 -23 -16 0 -20 7 -20 30 0 21 -5 30 -16
30 -12 0 -14 -9 -12 -37z"/>
<path d="M4030 1450 c0 -22 5 -40 10 -40 6 0 10 18 10 40 0 22 -4 40 -10 40
-5 0 -10 -18 -10 -40z"/>
<path d="M4077 1483 c-10 -10 -8 -61 2 -67 5 -4 23 5 40 20 l30 25 7 -25 c8
-35 24 -23 24 20 0 39 -17 45 -45 14 -10 -11 -22 -20 -27 -20 -4 0 -8 9 -8 20
0 20 -11 26 -23 13z"/>
<path d="M4302 1453 c3 -34 6 -38 33 -41 17 -2 36 -9 43 -14 19 -17 24 -4 17
46 -8 52 -25 62 -25 15 0 -26 -3 -30 -22 -27 -17 2 -24 11 -26 31 -5 42 -24
32 -20 -10z"/>
<path d="M4427 1483 c-4 -3 -7 -19 -7 -34 0 -29 15 -39 60 -39 44 0 46 18 3
22 -27 2 -39 8 -41 21 -4 20 21 32 46 22 15 -7 14 -9 -8 -15 -23 -8 -23 -8 8
-9 26 -1 32 3 32 19 0 17 -7 20 -43 20 -24 0 -47 -3 -50 -7z"/>
<path d="M4547 1483 c-11 -10 -8 -61 4 -68 6 -4 13 2 16 14 7 28 37 27 56 -1
16 -22 16 -22 16 20 1 23 -3 42 -9 42 -5 0 -10 -4 -10 -10 0 -5 -11 -10 -25
-10 -14 0 -25 5 -25 10 0 11 -13 13 -23 3z"/>
<path d="M4673 1483 c10 -3 20 -18 24 -34 7 -35 23 -39 23 -4 0 13 8 29 18 34
13 8 5 10 -33 10 -27 -1 -42 -3 -32 -6z"/>
</g>
</svg>
