<?xml version="1.0" standalone="no"?>
<!DOCTYPE svg PUBLIC "-//W3C//DTD SVG 20010904//EN"
 "http://www.w3.org/TR/2001/REC-SVG-20010904/DTD/svg10.dtd">
<svg version="1.0" xmlns="http://www.w3.org/2000/svg"
 width="584.000000pt" height="284.000000pt" viewBox="0 0 584.000000 284.000000"
 preserveAspectRatio="xMidYMid meet">

<g transform="translate(0.000000,284.000000) scale(0.100000,-0.100000)"
fill="#000000" stroke="none">
<path d="M1383 2600 c-508 -53 -929 -417 -1059 -917 -35 -132 -43 -352 -20
-498 75 -455 416 -844 851 -968 143 -41 227 -50 402 -44 166 6 241 20 376 71
322 121 603 408 716 728 232 663 -122 1369 -794 1581 -137 43 -327 62 -472 47z
m828 -570 c19 -11 24 -35 13 -64 -6 -14 -75 -16 -683 -16 -554 0 -681 -2 -696
-14 -22 -16 -27 -108 -7 -128 10 -10 156 -14 698 -16 745 -3 704 1 690 -57
l-6 -25 -696 0 c-626 0 -699 2 -724 16 -45 27 -60 63 -60 147 0 88 24 135 80
154 46 16 1361 18 1391 3z m-1141 -881 c3 -217 3 -409 0 -425 -6 -31 -31 -41
-76 -30 l-24 6 0 419 c0 230 3 421 7 425 4 4 25 6 48 4 l40 -3 5 -396z m240
379 c11 -30 11 -786 0 -815 -7 -18 -17 -23 -43 -23 -18 0 -38 5 -45 12 -17 17
-17 819 0 836 7 7 27 12 45 12 26 0 36 -5 43 -22z m240 3 c14 -27 14 -795 0
-822 -12 -22 -68 -27 -88 -7 -17 17 -17 819 0 836 20 20 76 15 88 -7z m240 0
c15 -30 14 -813 -2 -829 -16 -16 -70 -16 -86 0 -16 16 -17 799 -2 829 7 13 21
19 45 19 24 0 38 -6 45 -19z m238 7 c17 -17 17 -819 0 -836 -20 -20 -76 -15
-88 7 -14 27 -14 795 0 822 12 22 68 27 88 7z"/>
<path d="M4084 2022 c-30 -20 -33 -53 -31 -307 3 -256 3 -257 26 -276 29 -24
43 -24 64 -1 12 14 17 43 19 127 l3 110 93 3 92 3 0 -100 c0 -55 4 -111 9
-124 12 -31 49 -41 78 -21 23 14 23 15 23 288 0 252 -1 274 -18 289 -25 22
-48 21 -72 -3 -17 -17 -20 -33 -20 -125 l0 -105 -94 0 -94 0 -1 111 c0 95 -3
113 -18 125 -20 15 -42 17 -59 6z"/>
<path d="M3126 2004 c-14 -13 -16 -53 -16 -284 l0 -270 24 -15 c28 -19 58 -9
76 25 6 11 10 108 10 239 l0 221 93 0 c68 0 99 4 115 16 27 18 28 45 4 67 -27
24 -283 25 -306 1z"/>
<path d="M3545 1996 c-13 -19 -15 -62 -13 -281 l3 -258 27 -20 c25 -19 28 -19
52 -3 l26 16 0 235 0 235 95 0 95 0 0 -230 c0 -223 1 -230 22 -250 27 -25 43
-25 68 0 19 19 20 33 20 283 0 243 -1 265 -18 280 -16 14 -45 17 -190 17 -169
0 -172 0 -187 -24z"/>
<path d="M4562 2004 c-52 -36 -10 -84 75 -84 l53 0 0 -235 0 -235 26 -16 c24
-16 27 -16 52 3 l27 20 3 232 2 231 55 0 c42 0 60 5 75 20 24 24 24 29 4 58
-15 21 -21 22 -182 22 -135 0 -172 -3 -190 -16z"/>
<path d="M5040 2000 c-19 -19 -20 -33 -20 -273 0 -319 -9 -301 154 -295 161 6
215 40 239 153 15 74 -9 136 -71 179 -37 26 -55 31 -125 36 l-82 5 -3 58 -3
57 103 0 c78 0 109 4 126 16 27 18 28 45 4 67 -15 14 -42 17 -160 17 -129 0
-144 -2 -162 -20z m247 -326 c21 -22 25 -32 20 -66 -8 -59 -26 -72 -107 -76
l-70 -4 0 86 0 86 65 0 c57 0 69 -3 92 -26z"/>
<path d="M3184 1260 c-26 -13 -49 -35 -65 -63 -23 -40 -24 -51 -24 -207 0
-157 1 -167 24 -207 30 -52 87 -83 154 -83 76 0 157 44 130 71 -7 7 -23 4 -49
-10 -69 -37 -156 -24 -191 28 -27 39 -32 314 -8 377 28 74 112 96 197 53 45
-23 73 -14 47 17 -38 46 -146 58 -215 24z"/>
<path d="M3565 1258 c-26 -15 -48 -39 -62 -68 -21 -40 -23 -58 -23 -196 0
-163 6 -193 48 -237 39 -41 74 -57 129 -57 63 0 111 25 147 78 28 40 30 49 34
162 7 197 -9 261 -81 314 -42 31 -140 33 -192 4z m150 -32 c64 -27 75 -61 75
-229 0 -168 -10 -205 -62 -237 -62 -38 -144 -20 -180 38 -21 34 -23 48 -23
192 0 131 3 160 18 188 31 56 104 76 172 48z"/>
<path d="M4715 1263 c-35 -88 -170 -544 -165 -554 16 -24 38 1 57 63 l19 63
113 0 114 0 22 -65 c13 -39 28 -66 37 -68 36 -7 37 -11 -83 368 -61 192 -68
210 -89 210 -10 0 -21 -8 -25 -17z m64 -180 c18 -60 38 -127 46 -150 7 -23 11
-44 7 -47 -7 -8 -177 -8 -184 0 -3 3 7 49 24 102 16 53 36 121 44 150 9 28 19
52 23 52 4 0 22 -48 40 -107z"/>
<path d="M5037 1273 c-12 -11 -8 -561 3 -568 6 -4 17 -1 25 5 12 10 15 40 15
136 l0 124 120 0 120 0 0 -129 c0 -109 3 -130 16 -135 9 -3 20 -4 25 0 5 3 9
128 9 285 0 247 -2 280 -16 286 -27 10 -34 -17 -34 -144 l0 -123 -120 0 -120
0 0 123 c0 82 -4 127 -12 135 -14 14 -22 15 -31 5z"/>
<path d="M4196 1254 c-10 -25 -7 -527 3 -543 5 -8 16 -11 25 -8 13 5 16 24 16
110 l0 104 83 5 c99 5 141 25 175 84 19 32 22 50 19 100 -9 125 -60 164 -216
164 -81 0 -100 -3 -105 -16z m239 -55 c49 -49 52 -156 5 -203 -17 -18 -35 -22
-110 -24 l-90 -4 0 132 0 132 85 -3 c75 -4 87 -7 110 -30z"/>
</g>
</svg>
