<?xml version="1.0" standalone="no"?>
<!DOCTYPE svg PUBLIC "-//W3C//DTD SVG 20010904//EN"
 "http://www.w3.org/TR/2001/REC-SVG-20010904/DTD/svg10.dtd">
<svg version="1.0" xmlns="http://www.w3.org/2000/svg"
 width="382.000000pt" height="244.000000pt" viewBox="0 0 382.000000 244.000000"
 preserveAspectRatio="xMidYMid meet">

<g transform="translate(0.000000,244.000000) scale(0.100000,-0.100000)"
fill="#000000" stroke="none">
<path d="M2810 2050 c-36 -4 -422 -36 -859 -71 l-793 -64 777 -3 778 -2 31 24
c39 31 143 125 136 124 -3 0 -34 -4 -70 -8z"/>
<path d="M959 1754 c-137 -42 -228 -159 -323 -416 -58 -157 -46 -240 43 -292
48 -28 146 -26 226 4 45 17 75 39 122 86 34 35 69 77 78 94 l16 30 -81 0 c-78
0 -82 -1 -107 -30 -66 -79 -163 -77 -163 2 0 73 110 308 170 362 36 32 47 37
83 34 42 -3 42 -3 45 -45 l3 -43 78 0 78 0 7 41 c23 144 -106 225 -275 173z"/>
<path d="M1371 1738 c-5 -13 -18 -44 -30 -70 l-20 -48 84 0 c47 0 85 -1 85 -3
0 -2 -54 -131 -120 -288 -66 -156 -120 -287 -120 -291 0 -5 35 -8 78 -8 l77 0
125 293 126 292 85 3 84 3 25 62 c14 34 27 65 28 69 2 5 -109 8 -247 8 l-251
0 -9 -22z"/>
<path d="M1976 1733 c-16 -33 -296 -692 -296 -698 0 -3 35 -5 79 -5 l78 0 48
115 c40 98 55 122 94 155 25 21 47 37 50 35 2 -3 12 -60 22 -127 30 -199 17
-178 115 -178 61 0 84 3 84 13 0 7 -13 92 -30 190 -16 98 -30 187 -30 197 0
11 67 77 177 172 l177 153 -97 3 -97 3 -153 -130 c-83 -71 -153 -128 -154
-127 -2 1 22 59 51 129 l54 127 -78 0 c-77 0 -80 -1 -94 -27z"/>
<path d="M2689 1577 l-76 -182 51 -6 c137 -16 236 -155 207 -290 -7 -29 -17
-59 -23 -66 -9 -11 18 -13 163 -11 l173 3 77 180 76 180 -179 3 c-98 1 -178 6
-178 11 0 40 6 41 196 41 l184 0 10 26 c6 14 10 27 10 30 0 2 -81 4 -180 4
-99 0 -180 3 -180 6 0 3 5 14 10 25 10 18 23 19 194 19 l183 0 11 25 c7 14 12
28 12 30 0 3 -81 5 -180 5 -103 0 -180 4 -180 9 0 40 6 41 196 41 l183 0 14
28 c8 15 18 37 21 50 l7 22 -363 0 -363 0 -76 -183z"/>
<path d="M2533 1230 c-40 -24 -53 -48 -53 -99 0 -54 17 -87 57 -112 75 -46
170 3 180 93 12 107 -92 174 -184 118z"/>
</g>
</svg>
