<?xml version="1.0" standalone="no"?>
<!DOCTYPE svg PUBLIC "-//W3C//DTD SVG 20010904//EN"
 "http://www.w3.org/TR/2001/REC-SVG-20010904/DTD/svg10.dtd">
<svg version="1.0" xmlns="http://www.w3.org/2000/svg"
 width="240.000000pt" height="132.000000pt" viewBox="0 0 240.000000 132.000000"
 preserveAspectRatio="xMidYMid meet">

<g transform="translate(0.000000,132.000000) scale(0.100000,-0.100000)"
fill="#000000" stroke="none">
<path d="M1997 1090 c-66 -25 -112 -62 -144 -117 -28 -49 -52 -142 -53 -205
l0 -38 63 6 c132 11 127 9 127 64 0 41 5 55 30 84 30 34 31 36 28 129 l-3 95
-48 -18z"/>
<path d="M2090 1016 l0 -94 30 -7 c43 -9 64 -53 50 -104 -15 -56 -52 -102
-201 -249 l-134 -132 145 6 145 6 73 74 c129 132 186 243 186 364 0 138 -93
230 -234 230 l-60 0 0 -94z"/>
<path d="M1588 1022 l-108 -15 0 -89 0 -88 38 5 c50 7 204 25 215 25 4 0 6 39
5 88 -4 103 8 97 -150 74z"/>
<path d="M1343 987 l-73 -10 0 -383 0 -384 85 0 85 0 0 395 c0 310 -3 395 -12
394 -7 -1 -46 -6 -85 -12z"/>
<path d="M900 925 c-8 -2 -32 -6 -52 -10 l-38 -6 0 -349 0 -350 75 0 75 0 0
360 0 360 -22 -1 c-13 -1 -30 -3 -38 -4z"/>
<path d="M635 886 l-70 -11 -3 -74 -3 -73 43 5 c24 4 69 9 101 13 l57 6 0 74
0 74 -27 -1 c-16 -1 -59 -6 -98 -13z"/>
<path d="M450 861 l-45 -6 0 -320 0 -320 65 0 65 0 3 328 2 327 -22 -2 c-13 0
-43 -4 -68 -7z"/>
<path d="M185 823 c-88 -13 -166 -25 -172 -28 -8 -3 -13 -25 -13 -60 0 -35 5
-57 13 -60 15 -6 324 29 332 37 3 3 5 34 3 70 l-3 64 -160 -23z"/>
<path d="M1528 703 l-48 -4 0 -91 0 -91 61 7 c34 3 73 6 85 6 23 0 24 2 24 90
l0 90 -37 -2 c-21 -1 -59 -3 -85 -5z"/>
<path d="M148 663 l-28 -4 0 -225 0 -224 60 0 60 0 0 230 0 230 -32 -1 c-18
-1 -45 -4 -60 -6z"/>
<path d="M603 623 l-43 -4 0 -75 0 -74 28 0 c15 0 44 3 65 6 l37 7 0 73 c0 83
10 75 -87 67z"/>
<path d="M2195 409 c-99 -3 -231 -7 -293 -8 l-113 -1 3 -92 3 -93 300 0 300 0
0 99 c0 59 -4 100 -10 101 -5 1 -91 -2 -190 -6z"/>
<path d="M1598 392 l-118 -3 0 -90 0 -90 128 3 127 3 0 89 c0 52 -4 90 -10 90
-5 1 -63 0 -127 -2z"/>
<path d="M1033 373 l-33 -4 0 -80 0 -79 110 0 110 0 0 85 0 85 -77 -2 c-43 0
-93 -3 -110 -5z"/>
<path d="M647 363 l-88 -4 3 -72 3 -72 98 -3 97 -3 0 81 c0 58 -3 79 -12 78
-7 -1 -53 -4 -101 -5z"/>
</g>
</svg>
